<svg xmlns="http://www.w3.org/2000/svg" viewBox="0 0 220 248" preserveAspectRatio="none"><path d="M8.4 5.3L214.5 5.3L214.5 239.5L210.5 244.6L3.9 244.6L3.9 9.8Z" fill="#29374f"/><rect x="8.4" y="5.3" width="206.1" height="234.2" fill="#1e2436"/><path d="M8.4 5.3H214.5V239.5H8.4Z M13 12.3V233.1H210.7V12.3Z" fill="#171d2c" fill-rule="evenodd"/><rect x="8.4" y="5.3" width="206.1" height="3.1" fill="#20283a"/><rect x="8.4" y="5.3" width="206.1" height="234.2" fill="none" stroke="#0e1629" stroke-width="1.3"/><ellipse cx="15.3" cy="12.6" rx="2" ry="1.3" fill="#2d3446"/><ellipse cx="207.4" cy="12.2" rx="2" ry="1.3" fill="#2d3446"/><ellipse cx="16.2" cy="230.8" rx="2" ry="1.3" fill="#2d3446"/><ellipse cx="205.5" cy="229.6" rx="2" ry="1.3" fill="#2d3446"/><g fill="#cbd5e3"><rect x="92" y="193.2" width="38" height="6.6" rx="1" fill="#cbd5e3" stroke="#0e1629" stroke-width="0.8" stroke-linejoin="round" paint-order="stroke"/><rect x="66.8" y="192.4" width="5.9" height="8.4" rx="1.2" fill="#cbd5e3" stroke="#0e1629" stroke-width="0.8" stroke-linejoin="round" paint-order="stroke"/><rect x="150" y="192.4" width="5.9" height="8.4" rx="1.2" fill="#cbd5e3" stroke="#0e1629" stroke-width="0.8" stroke-linejoin="round" paint-order="stroke"/><rect x="73" y="183.4" width="7.3" height="26.8" rx="2" fill="#cbd5e3" stroke="#0e1629" stroke-width="0.8" stroke-linejoin="round" paint-order="stroke"/><rect x="142" y="183.4" width="7.3" height="26.8" rx="2" fill="#cbd5e3" stroke="#0e1629" stroke-width="0.8" stroke-linejoin="round" paint-order="stroke"/><rect x="81.8" y="176.8" width="10.2" height="39" rx="2" fill="#cbd5e3" stroke="#0e1629" stroke-width="0.8" stroke-linejoin="round" paint-order="stroke"/><rect x="130.6" y="176.8" width="10.2" height="39" rx="2" fill="#cbd5e3" stroke="#0e1629" stroke-width="0.8" stroke-linejoin="round" paint-order="stroke"/></g><path d="M30.47 44.14L44.39 44.14L48.99 48.74L48.99 70.47L44.39 75.07L30.47 75.07ZM37.21 50.85L42.25 50.85L42.25 68.36L37.21 68.36ZM51.78 44.14L58.93 44.14L58.93 75.07L51.78 75.07ZM62.19 44.14L77.98 44.14L77.98 50.85L68.13 50.85L68.13 56.25L77.18 56.25L77.98 57.05L77.98 74.27L77.18 75.07L61.39 75.07L61.39 68.36L71.24 68.36L71.24 62.96L62.19 62.96L61.39 62.16L61.39 44.94ZM81.44 44.14L97.31 44.14L97.31 50.85L87.38 50.85L87.38 68.36L97.31 68.36L97.31 75.07L81.44 75.07L80.64 74.27L80.64 44.94ZM100 44.14L106.81 44.14L106.81 75.07L100 75.07ZM109.74 44.14L126.83 44.14L127.63 44.94L127.63 63.14L126.83 63.94L116.48 63.94L116.48 75.07L109.74 75.07ZM116.48 50.85L120.89 50.85L120.89 57.23L116.48 57.23ZM130.16 44.14L136.9 44.14L136.9 68.36L145.34 68.36L145.34 75.07L130.16 75.07ZM147.76 44.14L154.84 44.14L154.84 75.07L147.76 75.07ZM157.46 44.14L164.2 44.14L164.2 45.38L169.56 55.43L169.56 44.14L176.3 44.14L176.3 75.07L169.56 75.07L169.56 68.11L164.2 58.99L164.2 75.07L157.46 75.07ZM178.96 44.14L194.79 44.14L194.79 50.85L185.7 50.85L185.7 56.25L193.59 56.25L193.59 62.96L185.7 62.96L185.7 68.36L194.79 68.36L194.79 75.07L178.96 75.07Z" fill="#dbe4ef" fill-rule="evenodd" stroke="#0e1629" stroke-width="1.5" stroke-linejoin="round" paint-order="stroke"/><path d="M57.17 84.73L74.32 84.73L75.92 86.33L75.92 98.73L74.32 100.33L75.92 101.93L75.92 114.33L74.32 115.93L57.17 115.93ZM64.04 91.28L69.05 91.28L69.05 97.06L64.04 97.06ZM64.04 103.61L69.05 103.61L69.05 109.38L64.04 109.38ZM78.61 84.73L85.48 84.73L85.48 109.38L90.42 109.38L90.42 84.73L97.29 84.73L97.29 114.33L95.69 115.93L80.21 115.93L78.61 114.33ZM100.24 84.73L107.18 84.73L107.18 115.93L100.24 115.93ZM110.22 84.73L117.09 84.73L117.09 109.38L126.13 109.38L126.13 115.93L110.22 115.93ZM128.2 84.73L143.03 84.73L147.23 88.93L147.23 111.73L143.03 115.93L128.2 115.93ZM135.07 91.28L140.36 91.28L140.36 109.38L135.07 109.38ZM151.59 84.73L167.2 84.73L167.2 91.28L156.86 91.28L156.86 97.06L165.6 97.06L167.2 98.66L167.2 114.33L165.6 115.93L149.99 115.93L149.99 109.38L160.33 109.38L160.33 103.61L151.59 103.61L149.99 102.01L149.99 86.33Z" fill="#dbe4ef" fill-rule="evenodd" stroke="#0e1629" stroke-width="1.5" stroke-linejoin="round" paint-order="stroke"/><path d="M34.25 125.86L51.46 125.86L51.46 132.05L41.03 132.05L41.03 138.88L49.86 138.88L49.86 145.06L41.03 145.06L41.03 158.08L34.25 158.08ZM54.12 125.86L72.45 125.86L73.65 127.06L73.65 144.26L71.75 146.16L73.25 148.06L73.65 158.08L65.92 158.08L64.02 146.16L60.9 146.16L60.9 158.08L54.12 158.08ZM60.9 132.05L66.87 132.05L66.87 138.76L60.9 138.76ZM76.8 125.86L93.85 125.86L93.85 132.05L83.58 132.05L83.58 138.88L92.25 138.88L92.25 145.06L83.58 145.06L83.58 151.89L93.85 151.89L93.85 158.08L76.8 158.08ZM96.81 125.86L113.92 125.86L113.92 132.05L103.59 132.05L103.59 138.88L112.32 138.88L112.32 145.06L103.59 145.06L103.59 151.89L113.92 151.89L113.92 158.08L96.81 158.08ZM117.29 125.86L134.29 125.86L136.49 128.06L136.49 155.88L134.29 158.08L117.29 158.08ZM124.07 132.05L129.71 132.05L129.71 151.89L124.07 151.89ZM140.18 127.06L141.38 125.86L158.56 125.86L159.76 127.06L159.76 156.88L158.56 158.08L141.38 158.08L140.18 156.88ZM146.96 132.05L152.98 132.05L152.98 151.89L146.96 151.89ZM163.11 125.86L172.09 125.86L176.68 139.07L181.27 125.86L190.25 125.86L190.25 158.08L183.47 158.08L183.47 140.36L176.68 151.64L169.89 140.36L169.89 158.08L163.11 158.08Z" fill="#eb2f43" fill-rule="evenodd" stroke="#0e1629" stroke-width="1.5" stroke-linejoin="round" paint-order="stroke"/></svg>