<svg xmlns="http://www.w3.org/2000/svg" viewBox="0 0 262 286.5"><defs><linearGradient id="hsFace" x1="0" y1="0" x2="1" y2="1"><stop offset="0" stop-color="#bde6ff" stop-opacity=".62"/><stop offset=".55" stop-color="#5cc3f5" stop-opacity=".4"/><stop offset="1" stop-color="#2f9fe0" stop-opacity=".5"/></linearGradient><linearGradient id="hsBeam" x1="0" y1="1" x2="0" y2="0"><stop offset="0" stop-color="#bde6ff" stop-opacity=".8"/><stop offset="1" stop-color="#9fdcff" stop-opacity=".12"/></linearGradient></defs><g stroke-linejoin="round" stroke-linecap="round"><ellipse cx="131" cy="282" rx="44" ry="4.5" fill="#000" opacity="0.3"/><polygon points="116,188 146,188 226,170 36,170" fill="url(#hsBeam)"/><rect x="12" y="12" width="238" height="158" fill="none" rx="12" stroke="#5cc3f5" stroke-width="16" opacity="0.1"/><rect x="12" y="12" width="238" height="158" fill="none" rx="12" stroke="#5cc3f5" stroke-width="8" opacity="0.2"/><rect x="12" y="12" width="238" height="158" fill="url(#hsFace)" rx="12"/><polygon points="70,12 110,12 40,170 12,170 12,140" fill="#ffffff" opacity="0.08"/><polygon points="124,12 138,12 70,170 56,170" fill="#ffffff" opacity="0.06"/><rect x="12" y="12" width="238" height="158" fill="none" rx="12" stroke="#9fdcff" stroke-width="2.6"/><path d="M16 150 L16 26 Q16 16 26 16 L160 16" fill="none" stroke="#e6f7ff" stroke-width="1.4" opacity="0.9"/><path d="M20 40 L20 20 L40 20" fill="none" stroke="#e6f7ff" stroke-width="3.2"/><path d="M242 40 L242 20 L222 20" fill="none" stroke="#e6f7ff" stroke-width="3.2"/><path d="M20 142 L20 162 L40 162" fill="none" stroke="#e6f7ff" stroke-width="3.2"/><path d="M242 142 L242 162 L222 162" fill="none" stroke="#e6f7ff" stroke-width="3.2"/><circle cx="34" cy="30" r="2" fill="#e6f7ff" opacity="0.8"/><circle cx="42" cy="30" r="2" fill="#e6f7ff" opacity="0.55"/><circle cx="50" cy="30" r="2" fill="#e6f7ff" opacity="0.35"/><ellipse cx="131" cy="273.25" rx="36" ry="7.5" fill="#1e2436" stroke="#0b1020" stroke-width="2.5"/><ellipse cx="131" cy="271.25" rx="28" ry="3.6" fill="#5cc3f5" opacity="0.55"/><ellipse cx="131" cy="271.25" rx="20" ry="2" fill="#e6f7ff" opacity="0.7"/><rect x="121" y="198" width="20" height="75.25" fill="#2a3148" stroke="#0b1020" stroke-width="2.5"/><rect x="123" y="200" width="4" height="71.25" fill="#3a4560"/><rect x="135" y="200" width="4" height="71.25" fill="#1e2436"/><rect x="121" y="232" width="20" height="4" fill="#5cc3f5" opacity="0.9"/><rect x="106" y="186" width="50" height="16" fill="#1e2436" rx="4" stroke="#0b1020" stroke-width="2.5"/><rect x="109" y="188" width="44" height="3" fill="#363f5a" rx="1.5"/><rect x="114" y="183.6" width="34" height="4" fill="#9fdcff" rx="2" stroke="#0e4f86" stroke-width="1.4"/><rect x="118" y="184.4" width="26" height="1.4" fill="#ffffff"/></g></svg>