<svg xmlns="http://www.w3.org/2000/svg" stroke-linejoin="round" stroke-linecap="round" viewBox="0 0 214 276"><defs><style>.bhp0{fill:#1d5f3c;stroke:#0b2d1c;stroke-width:2}.bhp1{fill:#236f47}.bhp2{fill:none;stroke:#c98a2e;stroke-width:2.4}.bhp3{fill:#236f47;stroke:#0b2d1c;stroke-width:2}.bhp4{fill:#2f8a55}.bhp5{fill:#45a86d}.bhp6{fill:#def3ff;stroke:#0e1b33;stroke-width:1.8}.bhp7{fill:#ffffff}</style></defs><g transform="translate(-13 -14)"><path class="bhp0" d="M118 88l4-9-1-7-3-7-2-6-3-6-3-5-3-5-3-5-3-4-3-4-3-4-3-3-2 3 2 7 4 3-5 5 2 7 8 3-9 8 2 7 13 3-13 9 9 6z"/><path class="bhp1" d="M118 88l4-9-1-7-3-7-2-6-3-6-3-5-3-5-3-5-3-4-3-4-3-4-3-3 2 4 2 4 2 4 3 5 2 5 2 5 2 6 2 5 2 7 3 6 2 7z"/><path class="bhp0" d="M118 88l-4-9 1-8 3-7 3-6 3-6 3-6 3-6 3-5 3-4 3-4 3-4 4-4 1 4-1 6-5 4 6 6-3 7-9 3 9 8-2 8-12 3 12 9-8 7z"/><path class="bhp1" d="M118 88l-4-9 1-8 3-7 3-6 3-6 3-6 3-6 3-5 3-4 3-4 3-4 4-4-3 4-2 5-2 4-3 5-2 5-2 6-2 6-3 6-2 6-2 7-3 7z"/><path d="M89 292l22-4v-12l-26 3zm-2-13l22-3v-12l-26 2zm-1-13l21-2 1-13-26 2zm-1-13l20-1 2-13-25 1zm-1-13l20-1 3-12h-25zm0-13h20l2-12-24-1zm0-12h20l3-12-24-2zm1-13l19 1 3-12-23-3zm1-13l19 1 3-12-23-3zm2-13l18 2 4-12-23-4zm2-13l17 3 5-12-22-5zm2-13l17 3 5-12-21-5zm3-13l17 4 5-12-21-5zm3-13l16 4 6-12-20-5zm4-13l15 5 7-12-20-6zm4-13l15 5 7-12-20-6z" fill="#86532e" stroke="#3a200c" stroke-width="2.2"/><path d="M90.3 290.3l6.2-1.1-1.5-9.9-8.7 1.3zm-1.8-12.8l6.1-.9-1.2-9.9-8.6 1zm-1.4-12.9l5.9-.7-.8-9.8-8.5.6zm-1-12.9l5.8-.4-.5-9.9-8.3.4zm-.5-12.8l5.7-.3-.2-9.9-8.2.1zm-.1-12.9l5.5-.1.2-9.8-8-.2zm.3-12.9l5.4.2.5-9.9-7.8-.5zm.8-12.8l5.2.3.8-10-7.6-.6zm1.2-12.9l5.1.5 1.1-10-7.5-.9zm1.6-12.8l4.9.5 1.5-9.9-7.3-1.1zm2.1-12.9l4.7.7 1.8-9.9-7.1-1.4zm2.5-12.9l4.5.9 2.1-10-6.9-1.5zm2.9-12.8l4.3 1 2.5-10.1-6.7-1.7zm3.3-12.8l4.2 1 2.8-10-6.5-1.9zm3.7-12.9l4 1.2 3.2-10.1-6.3-2zm4.2-12.8l3.8 1.2 3.5-10.1-6.1-2.2z" fill="#a86c3d"/><path d="M104.1 287.8l5.1-.9.8-9.8-7.6 1.2zm-2.1-12.3l5-.7 1.2-9.8-7.5.9zm-1.6-12.4l4.9-.5 1.5-9.7-7.4.6zm-1.2-12.4l4.8-.4 1.8-9.5-7.3.3zm-.8-12.4l4.6-.2 2.1-9.5-7.1.1zm-.4-12.4l4.5-.1 2.4-9.4-7-.2zm0-12.5l4.4.1 2.8-9.4-6.9-.4zm.4-12.5l4.3.3 3.1-9.4-6.7-.6zm.9-12.5l4.1.4 3.4-9.3-6.5-.8zm1.3-12.5l4 .5 3.7-9.3-6.4-1zm1.7-12.5l3.8.6 4-9.3-6.2-1.1zm2.1-12.6l3.7.7 4.3-9.2-6.1-1.3zm2.5-12.6l3.6.8 4.6-9.2-5.9-1.5zm3-12.6l3.4.9 4.9-9.2-5.7-1.6zm3.4-12.6l3.2.9 5.3-9.1-5.6-1.8zm3.8-12.6l3.1.9 5.5-9.1-5.3-1.9z" fill="#6a3f1e"/><ellipse cx="118" cy="91" rx="12" ry="9" fill="#603819" stroke="#3a200c" stroke-width="2"/><path class="bhp2" d="M115 95q-10 2-11 18"/><circle cx="104.9" cy="122.1" r="3" fill="#e0913a" stroke="#3a200c" stroke-width="1.2"/><circle cx="107.3" cy="115.1" r="3" fill="#c46a22" stroke="#3a200c" stroke-width="1.2"/><circle cx="104.3" cy="122.9" r="3" fill="#c46a22" stroke="#3a200c" stroke-width="1.2"/><circle cx="102.8" cy="120.8" r="3" fill="#e0913a" stroke="#3a200c" stroke-width="1.2"/><circle cx="108" cy="120.1" r="3" fill="#c46a22" stroke="#3a200c" stroke-width="1.2"/><circle cx="107.4" cy="118.9" r="3" fill="#c46a22" stroke="#3a200c" stroke-width="1.2"/><circle cx="99.2" cy="116.2" r="3" fill="#e0913a" stroke="#3a200c" stroke-width="1.2"/><circle cx="108" cy="121.6" r="3" fill="#c46a22" stroke="#3a200c" stroke-width="1.2"/><circle cx="109.5" cy="117.3" r="3" fill="#c46a22" stroke="#3a200c" stroke-width="1.2"/><path class="bhp2" d="M121 95q10 2 11 18"/><circle cx="133.2" cy="122.7" r="3" fill="#e0913a" stroke="#3a200c" stroke-width="1.2"/><circle cx="130.4" cy="117.5" r="3" fill="#c46a22" stroke="#3a200c" stroke-width="1.2"/><circle cx="133.8" cy="117" r="3" fill="#c46a22" stroke="#3a200c" stroke-width="1.2"/><circle cx="130.8" cy="118.3" r="3" fill="#e0913a" stroke="#3a200c" stroke-width="1.2"/><circle cx="129.6" cy="121.8" r="3" fill="#c46a22" stroke="#3a200c" stroke-width="1.2"/><circle cx="138.6" cy="115.8" r="3" fill="#c46a22" stroke="#3a200c" stroke-width="1.2"/><circle cx="126.8" cy="118.9" r="3" fill="#e0913a" stroke="#3a200c" stroke-width="1.2"/><circle cx="128.1" cy="121.9" r="3" fill="#c46a22" stroke="#3a200c" stroke-width="1.2"/><circle cx="136.2" cy="118.7" r="3" fill="#c46a22" stroke="#3a200c" stroke-width="1.2"/><path class="bhp3" d="M118 88l-7-9-10-3-9 1-9 3-9 3-9 5-8 5-8 7-8 7-8 8-8 10-7 10 9-5 12-8 6-10 11 3 10-5 4-12 9 10 9-3 6-12 4 17 9-6z"/><path class="bhp4" d="M118 88l-7-9-10-3-9 1-9 3-9 3-9 5-8 5-8 7-8 7-8 8-8 10-7 10 9-9 8-9 8-7 8-7 9-5 8-5 8-3 9-2 8-2h8 9z"/><path class="bhp5" d="M111 80l-10-3-9 1-9 2-9 4-8 4-9 5-8 7 1 2 9-6 8-5 8-4 9-3 9-2 8-1 9 2z"/><path class="bhp3" d="M118 88l8-9 9-3 10 1 10 3 9 4 9 5 8 5 9 7 8 8 8 9 8 10 8 11-10-5-11-9-7-11-11 2-10-6-5-12-10 11-9-4-6-12-5 17-9-8z"/><path class="bhp4" d="M118 88l8-9 9-3 10 1 10 3 9 4 9 5 8 5 9 7 8 8 8 9 8 10 8 11-9-10-9-9-8-8-9-7-8-6-9-5-9-3-8-3-9-2h-9-8z"/><path class="bhp5" d="M126 80l9-3 10 1 9 3 10 3 9 5 8 6 9 7-2 1-8-6-9-5-9-5-9-3-9-2-9-1-9 2z"/><path class="bhp3" d="M118 88l-8-3-6 2-5 6-5 5-4 7-4 7-4 8-4 9-4 9-4 11-4 11-3 12 7-8 6-12 3-11 10-3 6-9-1-11 13 3 4-8-3-11 12 10 1-9z"/><path class="bhp4" d="M118 88l-8-3-6 2-5 6-5 5-4 7-4 7-4 8-4 9-4 9-4 11-4 11-3 12 5-12 4-10 5-10 4-9 5-8 5-8 4-6 5-6 4-5 5-4 4-3z"/><path class="bhp5" d="M110 86l-6 2-5 5-4 6-5 6-4 8-4 7-4 9 2 1 4-8 4-8 5-7 4-6 5-5 4-5 6-3z"/><path class="bhp3" d="M118 88l8-3 7 3 5 5 5 6 4 7 5 7 4 8 4 9 4 10 4 11 4 11 4 12-7-8-7-12-3-11-10-4-6-9 1-11-13 2-5-7 3-12-12 10-1-9z"/><path class="bhp4" d="M118 88l8-3 7 3 5 5 5 6 4 7 5 7 4 8 4 9 4 10 4 11 4 11 4 12-5-11-5-11-5-10-4-10-5-8-5-8-5-6-5-6-5-6-4-4-5-3z"/><path class="bhp5" d="M126 86l7 2 4 5 5 6 5 7 4 7 5 9 4 9h-2l-4-8-5-8-5-7-4-6-5-6-5-5-6-3z"/><path class="bhp3" d="M118 88l-1-11-5-7-8-5-7-3-7-3-7-2-7-2-7-1h-6-7l-6 1-6 2 3 4 8 1 7-2 1 9 7 3 9-5-3 13 7 5 13-7-8 18 13-2z"/><path class="bhp4" d="M118 88l-1-11-5-7-8-5-7-3-7-3-7-2-7-2-7-1h-6-7l-6 1-6 2h6 6 6l6 2 7 1 6 3 6 2 6 4 6 4 7 4 6 5z"/><path class="bhp5" d="M116 77l-5-7-7-4-7-4-7-3-7-2-7-2-7-1v3l6 1 7 2 6 3 7 3 7 4 6 4 6 6z"/><path class="bhp3" d="M118 88l2-12 5-7 7-4 8-4 7-3 7-3 8-1 7-2h7 7l6 1 7 2-4 4-8 2-7-3-1 9-8 3-9-4 2 13-7 4-13-6 7 17-12 1z"/><path class="bhp4" d="M118 88l2-12 5-7 7-4 8-4 7-3 7-3 8-1 7-2h7 7l6 1 7 2h-7-6l-7 1-6 1-7 2-6 2-7 3-6 4-7 4-6 5-7 5z"/><path class="bhp5" d="M120 77l6-7 7-5 7-4 7-3 8-2 7-2 7-1v2l-6 1-7 3-7 2-7 4-7 4-7 4-6 7z"/><path class="bhp6" d="M106 43q-2-6 3-2 3 3 5 8 3 6 5 12 2 6 2 16 2 8 0 14l2-8q0 3-2 3-1 0-1-3l1-8v-6q0 6-2 6-2 0-2-6v-5l-1-5q0 2-2 2-2 0-2-2v-6l-6-10z"/><path class="bhp7" d="M107 41l2 2q3 2 5 8 3 6 5 11 2 6 2 16l-1 11 1-17-4-10-5-11z"/><path class="bhp6" d="M115 91q-2-6 0-13 0-9 1-14 1-6 4-11 2-5 5-10 2-6 4-6 4-2 2 4v3q0 6-2 6-1 0-1-6l-1 3v5q0 7-2 7-2 0-2-7l-1 5-5 11v6q0 6-1 6-2 0-2-6l1 5 1 6q0 6-1 6-2 0-2-6l2 6z"/><path class="bhp7" d="M116 89l-1-9q0-9 1-15 1-5 4-11 2-5 5-10 2-5 4-5l1-1-3 7-5 10-5 11-2 11z"/><path class="bhp6" d="M39 110q-1-6 5-10 4-6 9-11 4-4 9-6 5-1 10-4 6-3 11-6 6-3 11-3 6 0 12 1 5 1 10 6 6 4 5 10l-10-6-2-1q0 4-3 4-4 0-4-4l-2-2-11 2-11 4-11 5-10 6-9 7-9 8z"/><path class="bhp7" d="M41 108l3-7q4-6 9-10 4-5 9-6 5-2 10-5 6-3 11-6 6-2 11-3 6 0 12 1 5 1 10 7l3 5-8-5-11-3-11 2-11 4-11 5-10 6-9 7z"/><path class="bhp6" d="M115 87q-1-6 5-9 5-4 11-7 6-3 11-2 6 1 12 4 5 2 11 5 5 3 10 5 5 3 9 7 5 4 10 11 7 5 6 12l-3-6q0 7-3 7-3 0-3-7l-2-5-9-7-2-3q0 3-3 3-4 0-4-3l-1-3-11-5-11-4-3-1q0 4-3 4-2 0-2-4l-3-1-3 2q0 4-3 4-3 0-3-4l-3 1-10 6z"/><path class="bhp7" d="M117 84l4-4q4-5 10-7 6-3 11-2 6 1 12 3 5 3 11 5 5 3 10 6 5 2 9 7 5 4 10 11l4 7-9-10-9-7-10-6-11-5-11-4-11-2-12 3z"/><path class="bhp6" d="M73 142q-2-6 2-12 3-9 5-12 2-4 5-10 3-5 6-10 3-6 7-11 4-5 9-6 5-2 8 0 5-1 3 5v1q0 7-3 7-2 0-2-7h-1l-2 2q0 6-3 6-4 0-4-6l-1 3-1 4q0 4-3 4-3 0-3-4l-1 5-6 9-1 6q0 4-2 4-2 0-2-4l-1 5-4 10-5 11z"/><path class="bhp7" d="M74 140l2-9q2-8 4-12 2-4 5-9 3-6 6-11 3-5 7-11 4-5 9-6 5-2 8 0l2 2-5 1-10 4-8 9-6 10-6 11-4 10z"/><path class="bhp6" d="M118 86q-2-6 5-5 6-1 11 3 4 3 8 7 3 4 6 9 3 6 6 11 3 5 5 10 3 5 4 12 4 5 2 11v-4q0 2-2 2-1 0-1-2v-4l-5-11-6-10-6-10-1-5q0 5-2 5-3 0-3-5l-1-5-2-3q0 7-2 7-2 0-2-7l-3-4-11-2z"/><path class="bhp7" d="M119 84l5-1q5-1 10 2 4 3 8 7 3 4 6 10 3 5 6 10 3 5 5 10 3 5 4 13l1 7-2-9-5-10-6-11-6-10-7-9-9-7z"/><path class="bhp6" d="M61 56q-2-6 6-6 5-2 11 0 6 1 11 3 6 3 11 4 5 1 10 6 4 5 8 13 6 6 4 12l-8-13-9-7-2-3q0 4-3 4-3 0-3-4l-2-2-11-4-3-1q0 5-3 5-3 0-3-5l-3-2h-3q0 5-2 5-3 0-3-5h-3z"/><path class="bhp7" d="M62 53l5-2q5-2 11 0 6 1 11 4 6 2 11 3 5 1 10 6 4 5 8 14l3 8-7-13-9-7-10-5-11-4-12-3z"/><path class="bhp6" d="M114 88q-2-6 3-11 3-9 7-12 3-3 9-5 5-3 10-6 5-3 11-5 6-1 11-2 6-1 9 1 5 0 4 6h-7l-3 1q0 4-3 4-2 0-2-4l-3 1-3 2q0 5-3 5-3 0-3-5l-3 1-10 5-2 3q0 7-3 7-4 0-4-7l-2 3-1 4q0 7-2 7-3 0-3-7l-1 4-6 10z"/><path class="bhp7" d="M115 86l2-8q3-8 7-11 3-3 9-6 5-3 10-6 5-3 11-5 6-1 11-2 6-1 9 1l3 3h-6l-11 2-12 3-10 5-11 6-7 8z"/><path d="M70 292q-2-6 7-7 8-3 15-3 8-1 15 0 8 0 16 3 11 1 9 7l-17-1h-15-15l-15 1z" fill="#def3ff" stroke="#0e1b33" stroke-width="2"/><path class="bhp7" d="M72 290l6-3q7-3 14-4 8 0 15 0 8 0 16 3l8 4-16-1-15-1h-15z"/></g></svg>