<svg xmlns="http://www.w3.org/2000/svg" viewBox="0 0 160 217"><g stroke-linejoin="round" stroke-linecap="round"><ellipse cx="80" cy="212" rx="74" ry="5" fill="#000" opacity="0.26"/><rect x="8" y="196" width="144" height="14.75" fill="#1c2433" stroke="#0b1020" stroke-width="2.5"/><rect x="10" y="197.4" width="140" height="2.4" fill="#2b3446"/><rect x="5" y="38" width="150" height="8" fill="#5a6478" stroke="#0b1020" stroke-width="2"/><rect x="6.5" y="39.2" width="147" height="2" fill="#8a93a8"/><rect x="4" y="36.5" width="5" height="11" fill="#7f89a0" rx="1" stroke="#0b1020" stroke-width="1.6"/><rect x="151" y="36.5" width="5" height="11" fill="#7f89a0" rx="1" stroke="#0b1020" stroke-width="1.6"/><rect x="5" y="100" width="150" height="8" fill="#5a6478" stroke="#0b1020" stroke-width="2"/><rect x="6.5" y="101.2" width="147" height="2" fill="#8a93a8"/><rect x="4" y="98.5" width="5" height="11" fill="#7f89a0" rx="1" stroke="#0b1020" stroke-width="1.6"/><rect x="151" y="98.5" width="5" height="11" fill="#7f89a0" rx="1" stroke="#0b1020" stroke-width="1.6"/><rect x="5" y="160" width="150" height="8" fill="#5a6478" stroke="#0b1020" stroke-width="2"/><rect x="6.5" y="161.2" width="147" height="2" fill="#8a93a8"/><rect x="4" y="158.5" width="5" height="11" fill="#7f89a0" rx="1" stroke="#0b1020" stroke-width="1.6"/><rect x="151" y="158.5" width="5" height="11" fill="#7f89a0" rx="1" stroke="#0b1020" stroke-width="1.6"/><rect x="71" y="8" width="18" height="190" fill="#1f2636" stroke="#0b1020" stroke-width="2.5"/><rect x="73.2" y="10" width="4" height="186" fill="#323c52"/><rect x="83.8" y="10" width="3" height="186" fill="#131824"/><rect x="67" y="4" width="26" height="8" fill="#2b3446" stroke="#0b1020" stroke-width="2.5"/><rect x="69" y="5.2" width="22" height="2" fill="#46526b"/><rect x="53" y="14" width="18" height="56" fill="#1f2636" rx="8.5" stroke="#0b1020" stroke-width="2.4"/><rect x="55.8" y="21" width="3.6" height="42" fill="#364158" rx="1.8"/><rect x="65" y="21" width="3.2" height="42" fill="#131824" rx="1.6"/><rect x="37" y="14" width="18" height="56" fill="#1f2636" rx="8.5" stroke="#0b1020" stroke-width="2.4"/><rect x="39.8" y="21" width="3.6" height="42" fill="#364158" rx="1.8"/><rect x="49" y="21" width="3.2" height="42" fill="#131824" rx="1.6"/><ellipse cx="24" cy="42" rx="13" ry="28" fill="#141925" stroke="#0b1020" stroke-width="2.4"/><ellipse cx="26.2" cy="42" rx="9.6" ry="24.4" fill="#232b3c"/><path d="M20.7 24.08 Q18.7 42 20.7 55.44" fill="none" stroke="#46526b" stroke-width="2.2"/><rect x="23.2" y="37.5" width="6" height="9" fill="#7f89a0" rx="1.2" stroke="#0b1020" stroke-width="1.3"/><rect x="89" y="14" width="18" height="56" fill="#1f2636" rx="8.5" stroke="#0b1020" stroke-width="2.4"/><rect x="91.8" y="21" width="3.6" height="42" fill="#364158" rx="1.8"/><rect x="101" y="21" width="3.2" height="42" fill="#131824" rx="1.6"/><rect x="105" y="14" width="18" height="56" fill="#1f2636" rx="8.5" stroke="#0b1020" stroke-width="2.4"/><rect x="107.8" y="21" width="3.6" height="42" fill="#364158" rx="1.8"/><rect x="117" y="21" width="3.2" height="42" fill="#131824" rx="1.6"/><ellipse cx="136" cy="42" rx="13" ry="28" fill="#141925" stroke="#0b1020" stroke-width="2.4"/><ellipse cx="133.8" cy="42" rx="9.6" ry="24.4" fill="#232b3c"/><path d="M128.3 24.08 Q126.3 42 128.3 55.44" fill="none" stroke="#46526b" stroke-width="2.2"/><rect x="130.8" y="37.5" width="6" height="9" fill="#7f89a0" rx="1.2" stroke="#0b1020" stroke-width="1.3"/><rect x="53" y="73" width="18" height="62" fill="#1f2636" rx="8.5" stroke="#0b1020" stroke-width="2.4"/><rect x="55.8" y="80" width="3.6" height="48" fill="#364158" rx="1.8"/><rect x="65" y="80" width="3.2" height="48" fill="#131824" rx="1.6"/><rect x="37" y="73" width="18" height="62" fill="#1f2636" rx="8.5" stroke="#0b1020" stroke-width="2.4"/><rect x="39.8" y="80" width="3.6" height="48" fill="#364158" rx="1.8"/><rect x="49" y="80" width="3.2" height="48" fill="#131824" rx="1.6"/><ellipse cx="24" cy="104" rx="13" ry="31" fill="#141925" stroke="#0b1020" stroke-width="2.4"/><ellipse cx="26.2" cy="104" rx="9.6" ry="27.4" fill="#232b3c"/><path d="M20.7 84.16 Q18.7 104 20.7 118.88" fill="none" stroke="#46526b" stroke-width="2.2"/><rect x="23.2" y="99.5" width="6" height="9" fill="#7f89a0" rx="1.2" stroke="#0b1020" stroke-width="1.3"/><rect x="89" y="73" width="18" height="62" fill="#1f2636" rx="8.5" stroke="#0b1020" stroke-width="2.4"/><rect x="91.8" y="80" width="3.6" height="48" fill="#364158" rx="1.8"/><rect x="101" y="80" width="3.2" height="48" fill="#131824" rx="1.6"/><rect x="105" y="73" width="18" height="62" fill="#1f2636" rx="8.5" stroke="#0b1020" stroke-width="2.4"/><rect x="107.8" y="80" width="3.6" height="48" fill="#364158" rx="1.8"/><rect x="117" y="80" width="3.2" height="48" fill="#131824" rx="1.6"/><ellipse cx="136" cy="104" rx="13" ry="31" fill="#141925" stroke="#0b1020" stroke-width="2.4"/><ellipse cx="133.8" cy="104" rx="9.6" ry="27.4" fill="#232b3c"/><path d="M128.3 84.16 Q126.3 104 128.3 118.88" fill="none" stroke="#46526b" stroke-width="2.2"/><rect x="130.8" y="99.5" width="6" height="9" fill="#7f89a0" rx="1.2" stroke="#0b1020" stroke-width="1.3"/><rect x="53" y="134" width="18" height="60" fill="#1f2636" rx="8.5" stroke="#0b1020" stroke-width="2.4"/><rect x="55.8" y="141" width="3.6" height="46" fill="#364158" rx="1.8"/><rect x="65" y="141" width="3.2" height="46" fill="#131824" rx="1.6"/><rect x="37" y="134" width="18" height="60" fill="#1f2636" rx="8.5" stroke="#0b1020" stroke-width="2.4"/><rect x="39.8" y="141" width="3.6" height="46" fill="#364158" rx="1.8"/><rect x="49" y="141" width="3.2" height="46" fill="#131824" rx="1.6"/><ellipse cx="24" cy="164" rx="13" ry="30" fill="#a8161e" stroke="#0b1020" stroke-width="2.4"/><ellipse cx="26.2" cy="164" rx="9.6" ry="26.4" fill="#d7262e"/><path d="M20.7 144.8 Q18.7 164 20.7 178.4" fill="none" stroke="#f58a8e" stroke-width="2.2"/><rect x="23.2" y="159.5" width="6" height="9" fill="#7f89a0" rx="1.2" stroke="#0b1020" stroke-width="1.3"/><rect x="89" y="134" width="18" height="60" fill="#1f2636" rx="8.5" stroke="#0b1020" stroke-width="2.4"/><rect x="91.8" y="141" width="3.6" height="46" fill="#364158" rx="1.8"/><rect x="101" y="141" width="3.2" height="46" fill="#131824" rx="1.6"/><rect x="105" y="134" width="18" height="60" fill="#1f2636" rx="8.5" stroke="#0b1020" stroke-width="2.4"/><rect x="107.8" y="141" width="3.6" height="46" fill="#364158" rx="1.8"/><rect x="117" y="141" width="3.2" height="46" fill="#131824" rx="1.6"/><ellipse cx="136" cy="164" rx="13" ry="30" fill="#a8161e" stroke="#0b1020" stroke-width="2.4"/><ellipse cx="133.8" cy="164" rx="9.6" ry="26.4" fill="#d7262e"/><path d="M128.3 144.8 Q126.3 164 128.3 178.4" fill="none" stroke="#f58a8e" stroke-width="2.2"/><rect x="130.8" y="159.5" width="6" height="9" fill="#7f89a0" rx="1.2" stroke="#0b1020" stroke-width="1.3"/></g></svg>