<svg xmlns="http://www.w3.org/2000/svg" viewBox="0 0 200 1000"><defs><rect x="14" y="950" width="56" height="38" rx="6" id="py1"/><clipPath id="py2"><use href="#py1"/></clipPath><rect x="130" y="950" width="56" height="38" rx="6" id="py3"/><clipPath id="py4"><use href="#py3"/></clipPath><path id="py5" d="M40 972L153.9 836M160 972L46.1 836M46.1 836H153.9M46.1 836L148.7 718M153.9 836L51.3 718M51.3 718H148.7M51.3 718L144 614M148.7 718L56 614M56 614H144M56 614L139.9 522M144 614L60.1 522M60.1 522H139.9M60.1 522L136.2 440M139.9 522L63.8 440M63.8 440H136.2M63.8 440L133 368M136.2 440L67 368M67 368H133M67 368L130.2 304M133 368L69.8 304M69.8 304H130.2M69.8 304L127.7 248M130.2 304L72.3 248M72.3 248H127.7M72.3 248L125.5 200M127.7 248L74.5 200M74.5 200H125.5M74.5 200L124 166M125.5 200L76 166M76 166H124"/><path id="py6" d="M40 970L76 166" stroke-linecap="butt"/><path id="py7" d="M160 970L124 166" stroke-linecap="butt"/><rect x="56" y="154" width="88" height="18" rx="4" id="py8"/><clipPath id="py9"><use href="#py8"/></clipPath><path d="M88 134h24v22h-24Z" id="pya"/><clipPath id="pyb"><use href="#pya"/></clipPath><rect x="34" y="118" width="132" height="20" rx="4" id="pyc"/><clipPath id="pyd"><use href="#pyc"/></clipPath><path id="pye" d="M32 123q-4 -13 14 -15q20.3 -4.9 40.5 0.9q20.9 -5.7 41.8 0.6q12.8 -6.2 25.6 -0.2q18 0.7 14 13.7v3c-1.5 7 -18.7 7 -20.2 0c-1.5 7 -25 7 -26.5 0c-1.5 7 -26.6 7 -28.1 0c-1.5 7 -27 7 -28.5 0c-1.5 7 -31.2 7 -32.7 0Z"/><path id="pyf" d="M44 136h10L50 152ZM70 136h9L75.4 148ZM124 136h10L130 154ZM148 136h9L153.4 149Z"/><path d="M96.1 120H128.1L112.1 69.2Z" id="pyg"/><clipPath id="pyh"><use href="#pyg"/></clipPath><path id="pyi" d="M94.7 82.8L129.4 55.7"/></defs><g stroke-linejoin="round" stroke-linecap="round" stroke-width="3"><use href="#py1" fill="#c9d3ea"/><g clip-path="url(#py2)"><path d="M46 944h30v50h-30Z" fill="#9aa3b8"/></g><use href="#py1" fill="none" stroke="#0e1b33" stroke-width="5"/><use href="#py3" fill="#c9d3ea"/><g clip-path="url(#py4)"><path d="M162 944h30v50h-30Z" fill="#9aa3b8"/></g><use href="#py3" fill="none" stroke="#0e1b33" stroke-width="5"/><use href="#py5" fill="none" stroke="#0e1b33" stroke-width="12.2"/><use href="#py5" fill="none" stroke="#6d7486" stroke-width="5"/><use href="#py6" fill="none" stroke="#0e1b33" stroke-width="24.2"/><use href="#py6" fill="none" stroke="#9aa3b8" stroke-width="15"/><use href="#py7" fill="none" stroke="#0e1b33" stroke-width="24.2"/><use href="#py7" fill="none" stroke="#6d7486" stroke-width="15"/><path d="M36.5 966L72.5 170" fill="none" stroke="#c9d3ea" stroke-width="4" stroke-linecap="butt"/><path d="M75.2 184L74.2 206M124.8 184L125.8 206M73.1 230L72.2 252M126.9 230L127.8 252" fill="none" stroke="#d7262e" stroke-width="15" stroke-linecap="butt"/><path d="M70.9 280L70.1 298M129.1 280L129.9 298" fill="none" stroke="#fff" stroke-width="15" stroke-linecap="butt"/><path d="M75.2 184L74.2 206M124.8 184L125.8 206M73.1 230L72.2 252M126.9 230L127.8 252M70.9 280L70.1 298M129.1 280L129.9 298" fill="none" stroke="#0e1b33" stroke-width="2.4" stroke-linecap="butt"/><use href="#py8" fill="#394459"/><g clip-path="url(#py9)"><path d="M100 150h50v26h-50Z" fill="#2b3446"/></g><use href="#py8" fill="none" stroke="#0e1b33" stroke-width="5"/><use href="#pya" fill="#6d7486"/><g clip-path="url(#pyb)"><path d="M86 130h7v30h-7Z" fill="#9aa3b8"/><path d="M104 130h10v30h-10Z" fill="#5a6173"/></g><use href="#pya" fill="none" stroke="#0e1b33" stroke-width="4.6"/><use href="#pyc" fill="#9aa3b8"/><g clip-path="url(#pyd)"><path d="M30 130h140v10h-140Z" fill="#6d7486"/><path d="M30 114h22v28h-22Z" fill="#d7262e"/><path d="M148 114h22v28h-22Z" fill="#d7262e"/><path d="M30 130h22v10h-22Z" fill="#a8141c"/><path d="M148 130h22v10h-22Z" fill="#a8141c"/></g><use href="#pyc" fill="none" stroke="#0e1b33" stroke-width="4.6"/><use href="#pye" fill="#d3eafb"/><path d="M32 123q-4 -13 14 -15q20.3 -4.9 40.5 0.9q20.9 -5.7 41.8 0.6q12.8 -6.2 25.6 -0.2q18 0.7 14 13.7v-4c-1.5 5 -18.7 5 -20.2 0c-1.5 5 -25 5 -26.5 0c-1.5 5 -26.6 5 -28.1 0c-1.5 5 -27 5 -28.5 0c-1.5 5 -31.2 5 -32.7 0Z" fill="#fff"/><use href="#pye" fill="none" stroke="#0e1b33" stroke-width="4.6"/><use href="#pyf" fill="#5cc3f5"/><path d="M46 136h3L49 148.5ZM71.8 136h2.7L74.5 145.4ZM126 136h3L129 150ZM149.8 136h2.7L152.5 146.1Z" fill="#e6f8ff"/><use href="#pyf" fill="none" stroke="#0e1b33" stroke-width="3.8"/><use href="#pyg" fill="#394459"/><g clip-path="url(#pyh)"><path d="M112.1 59.2h30v60h-30Z" fill="#2b3446"/></g><use href="#pyg" fill="none" stroke="#0e1b33" stroke-width="4.6"/><use href="#pyi" fill="none" stroke="#0e1b33" stroke-width="20"/><use href="#pyi" fill="none" stroke="#394459" stroke-width="12"/><path d="M76.7 82.8a18 18 0 1 0 36 0a18 18 0 1 0 -36 0Z" fill="#2b3446" stroke="#0e1b33" stroke-width="4.6"/><path d="M83.7 82.8a11 11 0 1 0 22 0a11 11 0 1 0 -22 0Z" fill="#9aa3b8"/><path d="M90.2 82.8a4.5 4.5 0 1 0 9 0a4.5 4.5 0 1 0 -9 0Z" fill="#2b3446" stroke="#0e1b33"/><path d="M111.4 55.7a18 18 0 1 0 36 0a18 18 0 1 0 -36 0Z" fill="#2b3446" stroke="#0e1b33" stroke-width="4.6"/><path d="M118.4 55.7a11 11 0 1 0 22 0a11 11 0 1 0 -22 0Z" fill="#9aa3b8"/><path d="M124.9 55.7a4.5 4.5 0 1 0 9 0a4.5 4.5 0 1 0 -9 0Z" fill="#2b3446" stroke="#0e1b33"/><path d="M105.6 69.2a6.5 6.5 0 1 0 13 0a6.5 6.5 0 1 0 -13 0Z" fill="#c9d3ea" stroke="#0e1b33" stroke-width="3.6"/><path d="M0 1001C24 971 84 969.5 110 977C140 968 184 974 200 1001Z" fill="#d3eafb"/><path d="M12 995C32 974 84 972.5 106 980C136 971 172 977 188 995Z" fill="#fff"/><path d="M0 1001C24 971 84 969.5 110 977C140 968 184 974 200 1001Z" fill="none" stroke="#0e1b33" stroke-width="5"/></g></svg>