<svg xmlns="http://www.w3.org/2000/svg" viewBox="0 0 140 307"><g stroke-linejoin="round" stroke-linecap="round"><ellipse cx="70" cy="302" rx="66" ry="5" fill="#000" opacity="0.26"/><polygon points="118,12 134,4 134,284 118,292" fill="#0e121b" stroke="#0b1020" stroke-width="2.5"/><path d="M122 34 L130 30" fill="none" stroke="#1c2433" stroke-width="1.4"/><path d="M122 44 L130 40" fill="none" stroke="#1c2433" stroke-width="1.4"/><path d="M122 54 L130 50" fill="none" stroke="#1c2433" stroke-width="1.4"/><path d="M122 64 L130 60" fill="none" stroke="#1c2433" stroke-width="1.4"/><path d="M122 74 L130 70" fill="none" stroke="#1c2433" stroke-width="1.4"/><path d="M122 84 L130 80" fill="none" stroke="#1c2433" stroke-width="1.4"/><path d="M122 94 L130 90" fill="none" stroke="#1c2433" stroke-width="1.4"/><path d="M122 104 L130 100" fill="none" stroke="#1c2433" stroke-width="1.4"/><path d="M122 114 L130 110" fill="none" stroke="#1c2433" stroke-width="1.4"/><path d="M122 124 L130 120" fill="none" stroke="#1c2433" stroke-width="1.4"/><path d="M122 134 L130 130" fill="none" stroke="#1c2433" stroke-width="1.4"/><path d="M122 144 L130 140" fill="none" stroke="#1c2433" stroke-width="1.4"/><path d="M122 154 L130 150" fill="none" stroke="#1c2433" stroke-width="1.4"/><path d="M122 164 L130 160" fill="none" stroke="#1c2433" stroke-width="1.4"/><path d="M122 174 L130 170" fill="none" stroke="#1c2433" stroke-width="1.4"/><path d="M122 184 L130 180" fill="none" stroke="#1c2433" stroke-width="1.4"/><path d="M122 194 L130 190" fill="none" stroke="#1c2433" stroke-width="1.4"/><path d="M122 204 L130 200" fill="none" stroke="#1c2433" stroke-width="1.4"/><path d="M122 214 L130 210" fill="none" stroke="#1c2433" stroke-width="1.4"/><path d="M122 224 L130 220" fill="none" stroke="#1c2433" stroke-width="1.4"/><path d="M122 234 L130 230" fill="none" stroke="#1c2433" stroke-width="1.4"/><path d="M122 244 L130 240" fill="none" stroke="#1c2433" stroke-width="1.4"/><path d="M122 254 L130 250" fill="none" stroke="#1c2433" stroke-width="1.4"/><path d="M122 264 L130 260" fill="none" stroke="#1c2433" stroke-width="1.4"/><path d="M122 274 L130 270" fill="none" stroke="#1c2433" stroke-width="1.4"/><polygon points="8,12 24,4 134,4 118,12" fill="#2b3446" stroke="#0b1020" stroke-width="2.5"/><rect x="8" y="12" width="110" height="280" fill="#141925" stroke="#0b1020" stroke-width="2.5"/><rect x="10" y="14" width="4" height="276" fill="#232b3c"/><rect x="16" y="22" width="94" height="262" fill="#07090f" stroke="#0b1020" stroke-width="1.4"/><rect x="18" y="24" width="90" height="4" fill="#5cc3f5"/><rect x="18" y="24" width="90" height="12" fill="#5cc3f5" opacity="0.18"/><rect x="30" y="25" width="66" height="1.4" fill="#e6f7ff"/><path d="M18 40h90v20h-90zM18 62.6h90v20h-90zM18 85.2h90v34h-90zM18 121.8h90v34h-90zM18 158.4h90v20h-90zM18 181h90v20h-90zM18 203.6h90v34h-90zM18 240.2h90v20h-90zM18 262.8h90v20h-90z" fill="#232b3c" stroke="#0b1020" stroke-width="1.4"/><path d="M19.5 41.2h87v1.8h-87zM19.5 63.8h87v1.8h-87zM19.5 86.4h87v1.8h-87zM19.5 123h87v1.8h-87zM19.5 159.6h87v1.8h-87zM19.5 182.2h87v1.8h-87zM19.5 204.8h87v1.8h-87zM19.5 241.4h87v1.8h-87zM19.5 264h87v1.8h-87z" fill="#34405a"/><path d="M20 43h3v14h-3zM103 43h3v14h-3zM20 65.6h3v14h-3zM103 65.6h3v14h-3zM20 88.2h3v28h-3zM103 88.2h3v28h-3zM20 124.8h3v28h-3zM103 124.8h3v28h-3zM20 161.4h3v14h-3zM103 161.4h3v14h-3zM20 184h3v14h-3zM103 184h3v14h-3zM20 206.6h3v28h-3zM103 206.6h3v28h-3zM20 243.2h3v14h-3zM103 243.2h3v14h-3zM20 265.8h3v14h-3zM103 265.8h3v14h-3z" fill="#5a6478"/><path d="M27 45h7v10h-7zM36 45h7v10h-7zM45 45h7v10h-7zM54 45h7v10h-7zM63 45h7v10h-7zM72 45h7v10h-7zM27 67.6h7v10h-7zM36 67.6h7v10h-7zM45 67.6h7v10h-7zM54 67.6h7v10h-7zM63 67.6h7v10h-7zM72 67.6h7v10h-7zM27 186h7v10h-7zM36 186h7v10h-7zM45 186h7v10h-7zM54 186h7v10h-7zM63 186h7v10h-7zM72 186h7v10h-7zM27 267.8h7v10h-7zM36 267.8h7v10h-7zM45 267.8h7v10h-7zM54 267.8h7v10h-7zM63 267.8h7v10h-7zM72 267.8h7v10h-7z" fill="#161c28" stroke="#394459" stroke-width="0.8"/><path d="M28.5 46.5h4v1.4h-4zM37.5 46.5h4v1.4h-4zM46.5 46.5h4v1.4h-4zM55.5 46.5h4v1.4h-4zM64.5 46.5h4v1.4h-4zM73.5 46.5h4v1.4h-4zM28.5 69.1h4v1.4h-4zM37.5 69.1h4v1.4h-4zM46.5 69.1h4v1.4h-4zM55.5 69.1h4v1.4h-4zM64.5 69.1h4v1.4h-4zM73.5 69.1h4v1.4h-4zM28.5 187.5h4v1.4h-4zM37.5 187.5h4v1.4h-4zM46.5 187.5h4v1.4h-4zM55.5 187.5h4v1.4h-4zM64.5 187.5h4v1.4h-4zM73.5 187.5h4v1.4h-4zM28.5 269.3h4v1.4h-4zM37.5 269.3h4v1.4h-4zM46.5 269.3h4v1.4h-4zM55.5 269.3h4v1.4h-4zM64.5 269.3h4v1.4h-4zM73.5 269.3h4v1.4h-4z" fill="#46526b"/><path d="M27 90.2h50v1.8h-50zM27 94.4h50v1.8h-50zM27 98.6h50v1.8h-50zM27 102.8h50v1.8h-50zM27 107h50v1.8h-50zM27 111.2h50v1.8h-50zM27 126.8h50v1.8h-50zM27 131h50v1.8h-50zM27 135.2h50v1.8h-50zM27 139.4h50v1.8h-50zM27 143.6h50v1.8h-50zM27 147.8h50v1.8h-50zM27 163.4h50v1.8h-50zM27 167.6h50v1.8h-50zM27 171.8h50v1.8h-50zM27 245.2h50v1.8h-50zM27 249.4h50v1.8h-50zM27 253.6h50v1.8h-50z" fill="#10141e"/><path d="M27 113.2h50v2h-50zM27 149.8h50v2h-50z" fill="#5cc3f5" opacity="0.85"/><rect x="27" y="208.6" width="46" height="24" fill="#0b1a2e" rx="1.5" stroke="#0b1020" stroke-width="1.2"/><path d="M30 224.6h3.4v6h-3.4zM35.2 220.6h3.4v10h-3.4zM40.4 223.6h3.4v7h-3.4zM45.6 217.6h3.4v13h-3.4zM50.8 221.6h3.4v9h-3.4zM56 215.6h3.4v15h-3.4zM61.2 219.6h3.4v11h-3.4zM66.4 213.6h3.4v17h-3.4z" fill="#5cc3f5" opacity="0.75"/><g fill="#3ddc84" opacity="0.28"><circle cx="96" cy="50" r="3.4"/><circle cx="90.6" cy="50" r="3.4"/><circle cx="96" cy="72.6" r="3.4"/><circle cx="90.6" cy="72.6" r="3.4"/><circle cx="85.2" cy="138.8" r="3.4"/><circle cx="96" cy="168.4" r="3.4"/><circle cx="96" cy="191" r="3.4"/><circle cx="90.6" cy="191" r="3.4"/><circle cx="85.2" cy="191" r="3.4"/><circle cx="90.6" cy="220.6" r="3.4"/><circle cx="96" cy="250.2" r="3.4"/><circle cx="96" cy="272.8" r="3.4"/><circle cx="90.6" cy="272.8" r="3.4"/></g><path d="M94.5 48.5h3v3h-3zM89.1 48.5h3v3h-3zM94.5 71.1h3v3h-3zM89.1 71.1h3v3h-3zM83.7 137.3h3v3h-3zM94.5 166.9h3v3h-3zM94.5 189.5h3v3h-3zM89.1 189.5h3v3h-3zM83.7 189.5h3v3h-3zM89.1 219.1h3v3h-3zM94.5 248.7h3v3h-3zM94.5 271.3h3v3h-3zM89.1 271.3h3v3h-3z" fill="#3ddc84"/><g fill="#4fbaf5" opacity="0.28"><circle cx="85.2" cy="50" r="3.4"/><circle cx="96" cy="102.2" r="3.4"/><circle cx="90.6" cy="102.2" r="3.4"/><circle cx="85.2" cy="102.2" r="3.4"/><circle cx="79.8" cy="102.2" r="3.4"/><circle cx="96" cy="138.8" r="3.4"/><circle cx="90.6" cy="138.8" r="3.4"/><circle cx="79.8" cy="138.8" r="3.4"/><circle cx="96" cy="220.6" r="3.4"/><circle cx="85.2" cy="220.6" r="3.4"/></g><path d="M83.7 48.5h3v3h-3zM94.5 100.7h3v3h-3zM89.1 100.7h3v3h-3zM83.7 100.7h3v3h-3zM78.3 100.7h3v3h-3zM94.5 137.3h3v3h-3zM89.1 137.3h3v3h-3zM78.3 137.3h3v3h-3zM94.5 219.1h3v3h-3zM83.7 219.1h3v3h-3z" fill="#4fbaf5"/><g fill="#ffb020" opacity="0.28"><circle cx="85.2" cy="72.6" r="3.4"/><circle cx="90.6" cy="250.2" r="3.4"/></g><path d="M83.7 71.1h3v3h-3zM89.1 248.7h3v3h-3z" fill="#ffb020"/><g fill="#ff4d4d" opacity="0.28"><circle cx="90.6" cy="168.4" r="3.4"/></g><path d="M89.1 166.9h3v3h-3z" fill="#ff4d4d"/><path d="M108 72 C116 96 116 128 108 150" fill="none" stroke="#0b1020" stroke-width="4.4"/><path d="M108 72 C116 96 116 128 108 150" fill="none" stroke="#4fbaf5" stroke-width="2"/><path d="M108 190 C115 212 114 236 108 258" fill="none" stroke="#0b1020" stroke-width="4.4"/><path d="M108 190 C115 212 114 236 108 258" fill="none" stroke="#f5c542" stroke-width="2"/><rect x="12" y="290" width="16" height="10.75" fill="#1c2433" stroke="#0b1020" stroke-width="2.5"/><rect x="98" y="290" width="16" height="10.75" fill="#1c2433" stroke="#0b1020" stroke-width="2.5"/></g></svg>