<svg xmlns="http://www.w3.org/2000/svg" viewBox="0 0 282 241"><g transform="translate(-1 -11)"><defs><path id="wsp1" d="M130 140L154 140L154 252L130 252Z"/><path id="wsp2" d="M17 44H265Q270 44 270 49V81Q270 86 265 86H17Q12 86 12 81V49Q12 44 17 44Z"/><path id="wsp3" d="M21 86H269Q274 86 274 91V123Q274 128 269 128H21Q16 128 16 123V91Q16 86 21 86Z"/><path id="wsp4" d="M15 128H261Q266 128 266 133V165Q266 170 261 170H15Q10 170 10 165V133Q10 128 15 128Z"/><path id="wsp5" d="M41 52L52 52L47 72Z"/><path id="wsp6" d="M208 52L220 52L215 76Z"/><path id="wsp7" d="M246 52L254 52L250 66Z"/><path id="wsp8" d="M4 48Q0 26 22 24Q70 12 132 18Q196 8 252 20Q282 24 280 48L280 52C278 59 250 59 248 52C247 69 234 69 233 52C232 57 203 57 201 52C199 61 165 61 163 52C161 59 133 59 131 52C130 71 117 71 116 52C114 60 86 60 84 52C82 57 54 57 52 52C51 67 37 67 36 52C34 59 6 59 4 52Z"/><path id="wsp9" d="M104 252C111 237 134 236 144 240C153 237 175 238 180 252Z"/></defs><use href="#wsp1" fill="#8e5831"/><path d="M143 140L154 140L154 252L143 252Z" fill="#633a1b"/><path d="M137 196L137 226" fill="none" stroke="#4a2a12" stroke-width="2.5" stroke-linejoin="round" stroke-linecap="round"/><use href="#wsp1" fill="none" stroke="#0e1b33" stroke-width="3" stroke-linejoin="round"/><use href="#wsp2" fill="#0e1b33" stroke="#0e1b33" stroke-width="6" stroke-linejoin="round"/><use href="#wsp3" fill="#0e1b33" stroke="#0e1b33" stroke-width="6" stroke-linejoin="round"/><use href="#wsp4" fill="#0e1b33" stroke="#0e1b33" stroke-width="6" stroke-linejoin="round"/><use href="#wsp2" fill="#8e5831"/><path d="M15 46L267 46L269 50L14 50Z" fill="#b77a45"/><path d="M14 80L269 80L267 85L15 85Z" fill="#633a1b"/><use href="#wsp3" fill="#8e5831"/><path d="M19 88L271 88L273 92L18 92Z" fill="#b77a45"/><path d="M18 122L273 122L271 127L19 127Z" fill="#633a1b"/><use href="#wsp4" fill="#8e5831"/><path d="M13 130L263 130L265 134L12 134Z" fill="#b77a45"/><path d="M12 164L265 164L263 169L13 169Z" fill="#633a1b"/><path d="M16 86L270 86M16 128L266 128" fill="none" stroke="#4a2a12" stroke-width="2.5" stroke-linejoin="round" stroke-linecap="round"/><path d="M40 106L84 106M190 148L236 148M200 66L230 66" fill="none" stroke="#74431f" stroke-width="2" stroke-linejoin="round" stroke-linecap="round"/><path d="M22.5 104a3.5 3.5 0 1 0 7 0a3.5 3.5 0 1 0-7 0Z" fill="#3b2414"/><path d="M254.5 106a3.5 3.5 0 1 0 7 0a3.5 3.5 0 1 0-7 0Z" fill="#3b2414"/><path d="M20.5 148a3.5 3.5 0 1 0 7 0a3.5 3.5 0 1 0-7 0Z" fill="#3b2414"/><path d="M248.5 150a3.5 3.5 0 1 0 7 0a3.5 3.5 0 1 0-7 0Z" fill="#3b2414"/><path d="M24.5 66a3.5 3.5 0 1 0 7 0a3.5 3.5 0 1 0-7 0Z" fill="#3b2414"/><path d="M252.5 64a3.5 3.5 0 1 0 7 0a3.5 3.5 0 1 0-7 0Z" fill="#3b2414"/><use href="#wsp5" fill="#5cc3f5"/><path d="M42 52L46 52L46 68Z" fill="#e6f8ff"/><use href="#wsp5" fill="none" stroke="#0e1b33" stroke-width="2.5" stroke-linejoin="round"/><use href="#wsp6" fill="#5cc3f5"/><path d="M210 52L214 52L214 71Z" fill="#e6f8ff"/><use href="#wsp6" fill="none" stroke="#0e1b33" stroke-width="2.5" stroke-linejoin="round"/><use href="#wsp7" fill="#5cc3f5"/><path d="M248 52L250 52L250 63Z" fill="#e6f8ff"/><use href="#wsp7" fill="none" stroke="#0e1b33" stroke-width="2.5" stroke-linejoin="round"/><use href="#wsp8" fill="#d3eafb"/><path d="M4 48Q0 26 22 24Q70 12 132 18Q196 8 252 20Q282 24 280 48L280 45C278 50 250 50 248 45C247 59 234 59 233 45C232 49 203 49 201 45C199 52 165 52 163 45C161 50 133 50 131 45C130 60 117 60 116 45C114 51 86 51 84 45C82 49 54 49 52 45C51 57 37 57 36 45C34 50 6 50 4 45Z" fill="#fff"/><use href="#wsp8" fill="none" stroke="#0e1b33" stroke-width="3" stroke-linejoin="round"/><use href="#wsp9" fill="#d3eafb"/><path d="M107 249C113 238 133 237 141 240C149 237 167 238 171 249Z" fill="#fff"/><use href="#wsp9" fill="none" stroke="#0e1b33" stroke-width="3" stroke-linejoin="round"/></g></svg>