<svg xmlns="http://www.w3.org/2000/svg" viewBox="0 0 92 236.5"><g stroke-linejoin="round" stroke-linecap="round"><ellipse cx="46" cy="232" rx="40" ry="4.5" fill="#000" opacity="0.26"/><rect x="38" y="82" width="16" height="16" fill="#3aa9e6" stroke="#0b1020" stroke-width="2"/><rect x="16" y="10" width="60" height="78" fill="#7fd0f7" rx="14" stroke="#0b1020" stroke-width="2.5"/><rect x="19" y="16" width="9" height="66" fill="#bde6ff" rx="4.5"/><rect x="62" y="16" width="11" height="66" fill="#45b0ea" rx="5"/><rect x="17.5" y="34" width="57" height="3" fill="#9fdcff" stroke="#2f86c4" stroke-width="1.2"/><rect x="17.5" y="58" width="57" height="3" fill="#9fdcff" stroke="#2f86c4" stroke-width="1.2"/><rect x="32" y="18" width="5" height="58" fill="#ffffff" opacity="0.45" rx="2.5"/><circle cx="52" cy="70" r="2.6" fill="#ffffff" opacity="0.75"/><circle cx="58" cy="48" r="1.8" fill="#ffffff" opacity="0.65"/><circle cx="47" cy="26" r="1.4" fill="#ffffff" opacity="0.6"/><rect x="14" y="98" width="64" height="124.75" fill="#e8ecf5" stroke="#0b1020" stroke-width="2.5"/><rect x="16" y="100" width="6" height="120.75" fill="#f8faff"/><rect x="68" y="100" width="8" height="120.75" fill="#c3c8d8"/><rect x="10" y="92" width="72" height="10" fill="#c3c8d8" rx="2" stroke="#0b1020" stroke-width="2.5"/><rect x="12" y="93.4" width="68" height="2.6" fill="#eef1f8"/><ellipse cx="46" cy="92" rx="12" ry="3" fill="#9ca2b8" stroke="#0b1020" stroke-width="1.6"/><rect x="24" y="110" width="44" height="38" fill="#9ca2b8" rx="3" stroke="#0b1020" stroke-width="2"/><rect x="26" y="112" width="40" height="6" fill="#80879e" rx="2"/><rect x="31" y="113" width="8" height="11" fill="#d7262e" rx="1.5" stroke="#0b1020" stroke-width="1.6"/><rect x="32.5" y="114.5" width="2.4" height="7" fill="#f58a8e"/><rect x="53" y="113" width="8" height="11" fill="#2f9fe0" rx="1.5" stroke="#0b1020" stroke-width="1.6"/><rect x="54.5" y="114.5" width="2.4" height="7" fill="#9fdcff"/><rect x="27" y="140" width="38" height="6" fill="#6e6f86" rx="1.5" stroke="#0b1020" stroke-width="1.6"/><rect x="31" y="141.8" width="4" height="1.4" fill="#4a4b62"/><rect x="38" y="141.8" width="4" height="1.4" fill="#4a4b62"/><rect x="45" y="141.8" width="4" height="1.4" fill="#4a4b62"/><rect x="52" y="141.8" width="4" height="1.4" fill="#4a4b62"/><rect x="59" y="141.8" width="4" height="1.4" fill="#4a4b62"/><rect x="22" y="156" width="48" height="62" fill="#dfe3ee" rx="2" stroke="#9ca2b8" stroke-width="1.6"/><rect x="34" y="196" width="24" height="2" fill="#9ca2b8" rx="1"/><rect x="34" y="201" width="24" height="2" fill="#9ca2b8" rx="1"/><rect x="34" y="206" width="24" height="2" fill="#9ca2b8" rx="1"/><rect x="34" y="211" width="24" height="2" fill="#9ca2b8" rx="1"/><rect x="12" y="221.75" width="68" height="9" fill="#6e6f86" stroke="#0b1020" stroke-width="2.5"/><rect x="14" y="223.15" width="64" height="2" fill="#8a8aa0"/></g></svg>