<svg xmlns="http://www.w3.org/2000/svg" stroke-linejoin="round" stroke-linecap="round" viewBox="0 33 640 267"><view id="thumb" viewBox="106 33 450 180"/><defs><style>.qS{fill:#def3ff;stroke:#0e1b33;stroke-width:2}.qs{fill:#def3ff;stroke:#0e1b33;stroke-width:1.6}.qW{fill:#fff}.qo{fill:none;stroke:#0e1b33;stroke-width:2.6}.qq{fill:none;stroke:#0e1b33;stroke-width:2}.qL{fill:#ddcca9}.qM{fill:#c9b690}.qK{fill:#a8916c}.qH{fill:#ece2cb}.ql{fill:#ddcca9;stroke:#0e1b33;stroke-width:2}.qm{fill:#c9b690;stroke:#0e1b33;stroke-width:2}.qk{fill:#a8916c;stroke:#0e1b33;stroke-width:2}.qh{fill:#ece2cb;stroke:#0e1b33;stroke-width:2.2}.qx{fill:#1f2d4d;stroke:#0e1b33;stroke-width:1.6}.qc{fill:none;stroke:#a8916c;stroke-width:1.4}.qC{fill:none;stroke:#8a7550;stroke-width:1.6}.qp{fill:#c9b690;stroke:#8a7550;stroke-width:1.3}.qu{fill:#b9a47c;stroke:#8a7550;stroke-width:1.1}.qT{fill:#d8b983}.qE{fill:#c9a56f}.qn{fill:none;stroke:#b8925e;stroke-width:1.6}.qr{fill:#b8925e}.qy{fill:#c29c66;stroke:#0e1b33;stroke-width:1.8}.qz{fill:#ead6ab;stroke:#8a6a3e;stroke-width:1.2}.qZ{fill:#d8bc88;stroke:#8a6a3e;stroke-width:1.2}.qe{fill:#5e4526}.qP{fill:#8f6d42}.qg{fill:url(#qbPass);stroke:#0e1b33;stroke-width:2}.qa{fill:#5cc3f5;stroke:#0e4f86;stroke-width:2.2}.qA{fill:#9fdcff}.qi{fill:#bfe9ff;stroke:#0e4f86;stroke-width:1.6}.qj{fill:none;stroke:#e8f7ff;stroke-width:1.6}.qw{fill:#86532e;stroke:#3a200c;stroke-width:1.8}</style><linearGradient id="qbPass" x1="0" y1="0" x2="0" y2="1"><stop offset="0" stop-color="#101b33"/><stop offset="1" stop-color="#2a3f69"/></linearGradient><g id="qbR"><path d="M-5 0v-6.5q0-2.5 5-2.5 5 0 5 2.5v6.5z"/><path fill="#def3ff" stroke="#0e1b33" stroke-width="1.6" d="M-5-6q2.5-4.5 5-3.75 2.5-1 5 3.75h-1.5-7z"/></g><g id="qbB0"><path d="M-6 0v-6.5q0-2.5 6-2.5 6 0 6 2.5v6.5z"/><path fill="#def3ff" stroke="#0e1b33" stroke-width="1.6" d="M-6-6q3-4.5 6-3.75 3-.75 6 3.75h-1.5-9z"/></g><g id="qbB26"><path d="M-5.4 0v-6.5q0-2.5 5.4-2.5 5.4 0 5.4 2.5v6.5z"/><path fill="#def3ff" stroke="#0e1b33" stroke-width="1.6" d="M-5.5-6q2.75-4.75 5.5-4 2.75-1 5.5 4h-1.5-8z"/></g><g id="qbB52"><path d="M-3.7 0v-6.5q0-2.5 3.7-2.5 3.7 0 3.7 2.5v6.5z"/><path fill="#def3ff" stroke="#0e1b33" stroke-width="1.6" d="M-3.75-5.5q1.75-5.5 3.75-4.25 2-.75 3.75 4.25l-1.5-1h-4.5z"/></g></defs><path class="qT" d="M-8 304v-2.5c1.5 0 4-1 8-1.5 4-.5 10.5-1 16-2.5 5.5-1 12-2.5 18-5 6-2.5 12.5-5 18-8.5 5.5-3.5 9.5-7.5 14-12 4.5-4.5 8.5-10.5 12-16 3.5-5.5 7-12.5 10-18 3-5.5 5-11.5 7-16 2-4.5 3.5-9 5-12 1.5-3 3-5.5 5-7 2-1.5 5-2.5 7-3 2-.5 5 0 6 0h436c1 .5 4 .5 6 2 2 1.5 4 4 6 7 2 3 4 7 6 11 2 4 4 9 6 14 2 5 4 10 6 15 2 5 4 9.5 6 14 2 4.5 4 8.5 6 12 2 3.5 4 7 6 10 2 3 4 5.5 6 7.5 2 2 4.5 3.5 7 5 2.5 1.5 6 2 9 2.5 3 1 8.5 1.5 10 1.5v2.5z"/><path class="qE" d="M-8 304v-2.5l14-2.5 14-2.5 14-4 14-1 14-.5 14 .5 14 1 14-.5 14-1 14-2 14-1 14 .5 14 1.5h14l14-.5 14-.5 14 .5 14 1.5 14 1.5 14 .5 14-1 14-1h14l14 .5 14 .5 14-1 14-1.5 14-1.5h14l14 1 14 1.5h14l14-1h14l14 1 14 1.5 14 1 14-.5 14-1 14-1h14l14 1 14-.5 14 1.5 14 7 12 4.5z"/><path class="qE" d="M554 200c1 .5 4 .5 6 2 2 1.5 4 4 6 7 2 3 4 7 6 11 2 4 4 9 6 14 2 5 4 10 6 15 2 5 4 9.5 6 14 2 4.5 4 8.5 6 12 2 3.5 4 7 6 10 2 3 4 5.5 6 7.5 2 2 4.5 3.5 7 5 2.5 1.5 6 2 9 2.5 3 1 8.5 1.5 10 1.5v2.5h-28l-10-12-12-16-10-20-8-22-6-20z"/><path class="qo" d="M-8 304v-2.5c1.5 0 4-1 8-1.5 4-.5 10.5-1 16-2.5 5.5-1 12-2.5 18-5 6-2.5 12.5-5 18-8.5 5.5-3.5 9.5-7.5 14-12 4.5-4.5 8.5-10.5 12-16 3.5-5.5 7-12.5 10-18 3-5.5 5-11.5 7-16 2-4.5 3.5-9 5-12 1.5-3 3-5.5 5-7 2-1.5 5-2.5 7-3 2-.5 5 0 6 0h436c1 .5 4 .5 6 2 2 1.5 4 4 6 7 2 3 4 7 6 11 2 4 4 9 6 14 2 5 4 10 6 15 2 5 4 9.5 6 14 2 4.5 4 8.5 6 12 2 3.5 4 7 6 10 2 3 4 5.5 6 7.5 2 2 4.5 3.5 7 5 2.5 1.5 6 2 9 2.5 3 1 8.5 1.5 10 1.5v2.5z"/><path class="qr" d="M198 292v-24h17 17v-24l18-.5 18 .5v-24l16.5.5 16.5-.5h16.5l16.5.5 16.5-.5h16.5 16.5 16.5v24l18-.5 18 .5v24l17-.5 17 .5v24z"/><path class="qE" d="M268 220h132v5l-132 1zm-36 24h36v5h-36zm168 0h36v5h-36zm-202 24h34v5h-34zm238 0h34v5h-34z"/><path class="qq" d="M198 292v-24h17 17v-24l18-.5 18 .5v-24l16.5.5 16.5-.5h16.5l16.5.5 16.5-.5h16.5 16.5 16.5v24l18-.5 18 .5v24l17-.5 17 .5v24z"/><path class="qS" d="M266 245q17-3 34-2 17-1 34 0 17-1 34 0 17-1 34 2l-1 1h-133zm-36 24q17-3 35-2 17-1 34 0 18-2 35 0 17-1 35 0 17-1 34 0 18-1 35 2l-1 1h-205zm-34 24q17-4 35-2 17-2 34 0 17-2 35 0 17-1 34 0 17-2 35 0 17-1 34 0 17-1 35 0 17-1 34 2l-1 2h-273z"/><path class="qW" d="M268 244q15-1 32 0 17-1 34 0 17-1 34 0 17-1 32 0zm-36 24q15-1 33 0 17-1 34 0 18-1 35 0 17-1 35 0 17-1 34 0 18-1 33 0zm-34 24q15-1 33 0 17-1 34 0 17-2 35 0 17-1 34 0 17-1 35 0 17-1 34 0 17-1 35 0 17-1 32 0z"/><path class="qy" d="M274 244v-13l8.5-2.5 8 2h8.5l8-2 8.5 1.5 8 1h8.5v13z"/><path class="qe" d="M296 244v-6.5q0-2.5 4.5-2.5 4.5 0 4.5 2.5v6.5z"/><path class="qP" d="M298.5 244v-5.5q3-1.5 6.5 0v5.5z"/><path class="qy" d="M344 244v-11h7.5l7.5-1 7.5-2 7 1.5 7.5-2 7.5 3 7.5 2v9.5z"/><path class="qy" d="M237 268v-9l8.5-5h8.5l8-1.5 8.5-.5h8.5l8.5 3h8l8.5 1.5v11.5z"/><path class="qe" d="M262 268v-6.5q0-2.5 4.5-2.5 4.5 0 4.5 2.5v6.5z"/><path class="qP" d="M264.5 268v-5.5q3-1.5 6.5 0v5.5z"/><path class="qy" d="M376 268v-14l8-2.5 8 1 8-.5 8 2 8-1 8-1.5 8 3v13.5z"/><path class="qy" d="M203 292v-11l8-3 8-.5h7.5l8-.5 8 2 8-2.5 7.5-1 8 3.5v13z"/><path class="qy" d="M276 292v-13.5l7.5-.5 7.5-2 7.5-1.5 7.5 1 7.5 2 7.5-1 7.5-1 7.5 2v14.5z"/><path class="qe" d="M306 292v-8.5q0-2.5 4.5-2.5 4.5 0 4.5 2.5v8.5z"/><path class="qP" d="M308.5 292v-7.5q3-1.5 6.5 0v7.5z"/><path class="qy" d="M364 292v-12l8.5-1 8-2 8.5 1 8 2 8.5-3.5 8 1 8.5 5.5v9z"/><path class="qy" d="M430 292v-12l7-1.5 7.5-1 7 .5 7.5 1h7v13z"/><path class="qe" d="M441 292v-6.5q0-2.5 4.5-2.5 4.5 0 4.5 2.5v6.5z"/><path class="qP" d="M443.5 292v-5.5q3-1.5 6.5 0v5.5z"/><path class="qz" d="M284 235q-4 2-6 0-2-2 0-3 3-1 6 0 3 1 0 3zm36 7q-3 0-4-1-2-2 1-3 3-1 5 1 1 2-2 3zm35-4q-1 2-6 2-5-1-3-3 1-2 6-2 4 1 3 3zm23-3q-3-2 1-3 3-1 6 0 3 2-1 4-3 1-6-1zm-18 4q2 3-1 4-4 0-6-2-2-3 2-3 3-1 5 1zm33 2q-2 2-6 1-3-2-2-3 1-2 5-1 4 1 3 3zm-144 18q-1 2-5 3-4 1-4-2 0-3 5-3 5 0 4 2zm51-1q3 2-1 3-3 2-5 0-1-2 1-3 2-2 5 0zm-49 7q-3 2-5 0-2-2 1-3 2-2 4 0 2 2 0 3zm51-1q-1 2-5 2-5 0-4-3 0-3 5-2 5 0 4 3zm83-6q-3 2-6 1-2-2 0-4 3-1 6 0 3 2 0 3zm30 3q-3 2-5-1-2-2 0-4 3-1 6 1 3 1-1 4zm-23 3q-3 3-6 2-3-1-1-4 1-2 6-1 4 1 1 3zm32 2q-4 0-6-2-1-2 3-3 5 0 6 2 1 3-3 3zm-209 16q2 2-4 3-5 1-6-1-1-3 3-4 4-1 7 2zm26 3q-3 0-1-3 2-2 6-1 3 2 0 3-2 2-5 1zm-23 1q1 2-2 4-3 1-5-2-1-2 2-3 3-1 5 1zm34 1q2 2-2 3-5 1-7-1-2-3 2-4 4-1 7 2zm35-4q0 2-4 2-4 0-3-2 0-3 4-3 3 1 3 3zm84 3q-4 0-4-3 0-2 5-2 5 1 4 3-1 3-5 2zm37-6q2 3-2 3-4 1-5-1-1-2 2-3 4-1 5 1zm-28 7q2 1-2 3-5 1-6-1-2-2 2-3 4-1 6 1zm30-1q3 1-1 3-3 2-6 0-4-2 0-3 4-2 7 0z"/><path class="qZ" d="M286 242q-4 0-4-3 1-2 5-2 4 1 3 3 0 1-4 2zm84-7q0 2-5 1-5-1-3-2 2-2 6-2 3 1 2 3zm8 4q2 2-3 2-5 1-5-1-1-2 2-2 3-1 6 1zm-98 22q-3-1-2-4 1-2 4-2 4 1 3 4-2 2-5 2zm0 5q-6 0-5-2 0-2 3-2 4-1 6 2 1 2-4 2zm119-7q-3-1-1-3 2-3 4-1 3 2 1 3-1 2-4 1zm10 5q0 2-5 2-5 1-5-2 0-3 5-3 5 1 5 3zm-181 21q-5 1-6-2-1-2 4-3 4 0 5 2 1 3-3 3zm6 4q-3 1-6 0-2-1 1-4 3-2 6 0 3 2-1 4zm57 0q-2 2-6 0-4-3 0-4 3-2 6 0 2 2 0 4zm95-4q-4-1-2-4 3-2 6-1 3 1 2 4-2 2-6 1zm8 2q0 2-3 2-3 1-4-1-1-2 3-3 4 0 4 2z"/><path class="qq" d="M343 292l7-33m3 33 7-33" style="stroke-width:4.4"/><path class="qw" d="M343 292l7-33m3 33 7-33" style="stroke-width:2.4;stroke:#a86c3d"/><path class="qw" d="M344.5 285h10m-8.5-7.5h10m-8.5-7.5h10m-8.5-7.5h10" style="stroke:#603819;stroke-width:2.2"/><path class="qs" d="M281 229q11-1 22-.5 11-1 22 3l-1.5 1-5.5-.5-8-1-10.5 1-7.5.5-9.5-2zm69 5q10-4.5 20-4 10-3 20 4l-1.5.5-5-2.5-10 1.5-6-1.5-8.5 2-7.5.5zm-106 21q9-3.5 17.5-3.5 9-1.5 18 0 8.5 1.5 17.5 4l-1.5 1-5.5.5-10.5-3h-6.5l-9 .5-7.5 1-11 .5zm138.5-3q11-1.5 21.5.5 10.5-1 21.5-.5l-1.5 1-8 2-9.5.5-6.5-1.5h-7.5l-8.5-1zm-173 26.5q8.5-3 16.5-1.5 8.5-2 17 1 8-4 16.5-2.5l-1.5 1.5-6 1-7 2-8-.5-8.5-.5-9 .5h-8.5zm72.5.5q8-5.5 16-5.5 8-.5 16 3 8-2.5 16-.5l-1.5 1-5 1-5.5.5h-7.5l-10-2-7.5.5-9.5 2.5zm89 1q11-5.5 22-2 11-3 22 .5l-1.5 1-7.5-1q0 1.5-2 1.5-1.5 0-1.5-.5l-5 2-7-1.5-10.5-1-7.5 1.5zm65-1q12-3 24 1l-1.5.5-4-.5-8.5-.5-8.5.5z"/><path class="qM" d="M352 72h72v128h-72z"/><path class="qK" d="M408 72h16v128h-16z"/><path class="qK" d="M352 72h72v5h-72z"/><path class="qo" d="M352 72h72v128h-72z"/><path class="qx" d="M364 90v-7.5a3.5 3.5 0 0 1 7 0v7.5zm26 0v-7.5a3.5 3.5 0 0 1 7 0v7.5z"/><g class="qm"><use href="#qbR" x="358" y="72"/><use href="#qbR" x="373" y="72"/><use href="#qbR" x="388" y="72"/><use href="#qbR" x="418" y="72"/></g><path class="qm" d="M398.5 72v-6h4l1.5 2 1.5-.5 2 2v2.5z"/><path class="qq" d="M408.5 70v-30h2v30z" style="fill:#c9d3e0;stroke-width:1.6"/><circle cx="409.5" cy="38.5" r="2.4" fill="#f2c14e" stroke="#0e1b33" stroke-width="1.4"/><path d="M410.7 41Q417.5 39 424.5 41T438.5 41V58Q431.5 56 424.5 58T410.7 58Z" fill="#fff"/><path d="M418.5 40.4Q421.5 39.7 424.5 41T438.5 41V58Q431.5 56 424.5 58Q421.5 58.8 418.5 58.3L423 56.5L418.5 54.7L423 52.9L418.5 51.1L423 49.3L418.5 47.6L423 45.8L418.5 44L423 42.2L418.5 40.4Z" fill="#d7262e"/><path d="M410.7 41Q417.5 39 424.5 41T438.5 41V58Q431.5 56 424.5 58T410.7 58Z" fill="none" stroke="#0e1b33" stroke-width="1.6"/><path class="qS" d="M350 73q8-5 15-3 8-2 15 0 8-3 16 0 7-3 15 0 7-3 15 3l-1 2h-73z"/><path class="qs" d="M398.5 67q2.5-4.5 4.5 0l-1.5 1h-1.5z"/><path class="qW" d="M352 72q6-3 13-1 8-2 15 0 8-3 16 0 7-3 15 0 7-2 13 1z"/><path class="qL" d="M214 100h206l4 6 6-2 6 10 8-3 6 11 8-4 6-5 8-1v88h-258z"/><path class="qM" d="M214 100h206v6h-206z"/><path class="qM" d="M214 176h258v24h-258z"/><path class="qq" d="M214 176h258"/><path class="qp" d="M250.5 134l-5 1.5-4.5 3-4-3-4.5-3 4.5-3 3-4 5 2.5 4.5 1.5z"/><path class="qu" d="M238 134q-2 0-1-2 0-1 2-1 1 1 1 2 0 2-2 1zm7-3q-1 1-2 1-2 0-2-1 1-2 2-1 2 0 2 1zm3 3q-1 1-2 1-1 0-1-1 1-2 2-1 1 0 1 1z"/><path class="qp" d="M347.5 146l-4.5 1.5-4 2.5-3.5-3-3.5-2.5 3.5-3 3-3 4 1.5 5 1.5z"/><path class="qu" d="M337 146q-2 0-2-2 1-1 2 0 2 0 2 1-1 1-2 1zm5-2q-1 1-2 0-1-1 0-2 1-1 2 0 1 1 0 2zm3 2q-1 1-2 1-1-1 0-2 1-1 1 0 1 0 1 1z"/><path class="qC" d="M434 118l-4 10 5 8-3 10m24-14 3 9-4 7m-219 8 5 5m157-29-3 6m-15 12 4 6-2 5"/><path class="qo" d="M214 100h206l4 6 6-2 6 10 8-3 6 11 8-4 6-5 8-1v88h-258z"/><g class="ql"><use href="#qbR" x="225.5" y="100"/><use href="#qbR" x="242.5" y="100"/><use href="#qbR" x="276.5" y="100"/><use href="#qbR" x="293.5" y="100"/><use href="#qbR" x="310.5" y="100"/><use href="#qbR" x="327.5" y="100"/><use href="#qbR" x="378.5" y="100"/><use href="#qbR" x="412.5" y="100"/></g><path class="ql" d="M254.5 100v-6.5h4.5l1.5 2.5 2-1 2 2.5v2.5z"/><path class="ql" d="M356.5 100v-6.5h4.5l1.5 2.5 2-1 2 2.5v2.5z"/><path class="qS" d="M212 101q10-6 19-3 10-3 19 0 10-3 19 0 10-4 19-1 10-2 20 1 9-3 19 0 9-4 19 0 9-2 19 0 9-3 19 0 9-3 19-1 10-2 19 4l-1 2h-12q0 4-2 4-2 0-2-4h-72q0 4-2 4-2 0-2-4h-12q0 2-2 2-2 0-2-2h-99zm206-3q4 1 8 6 4-4 8 5 4 0 8 1 4 0 8 10 4-5 8-4 4-6 8-5 4-3 8 2l-1 1-6 1q0 4-1 4-2 0-2-4l-6 6-6 2-7-7q0 2-1 2-2 0-2-4l-9-3-7-3-6-6z"/><path class="qs" d="M254.5 94.5q2.5-4.5 5 0l-1.5 1h-2zm102 0q2.5-4 5 0l-1.5 1h-2z"/><path class="qW" d="M214 100q8-4 17-1 10-3 19 0 10-3 19 0 10-3 19-1 10-2 20 1 9-3 19 0 9-3 19 0 9-2 19 0 9-2 19 0 9-3 19-1 10-2 17 2zm206-1q2 1 6 6 4-4 8 5 4 0 8 1 4 0 8 10 4-4 8-4 4-5 8-5 4-3 6 0l-6 1-8 5-8 4-8-10-8-2-8-5z"/><path class="qK" d="M522 94l6 2 4 8 4-2 4 6v68l6 24h-20l-4-24z"/><path class="qL" d="M468 94h54v82l4 24h-64l6-24z"/><path class="qM" d="M510 94h12v82h-12z"/><path class="qM" d="M468 176h54l4 24h-64z"/><path class="qq" d="M468 176h54 18"/><path class="qC" d="M510 138l4 8-3 8 4 7m17-43-3 9"/><path class="qo" d="M522 94l6 2 4 8 4-2 4 6v68l6 24h-20l-4-24z"/><path class="qo" d="M468 94h54v82l4 24h-64l6-24z"/><use href="#qbR" x="479.5" y="94" class="ql"/><path class="ql" d="M506.5 94v-6.5h4.5l1.5 2.5 2-1 2 2.5v2.5z"/><path class="qS" d="M466 95q7-6 15-3 7-3 14 0 7-3 15 0 7-3 14 3l-1 2h-5q0 3-1 3-2 0-2-3h-12q0 3-1 3-1 0-1-3h-20q0 4-2 4-1 0-1-4h-10zm54-1q4-4 7 0 4 4 8 7 3 0 7 11l-1-1-8-5-8-8-3-2z"/><path class="qs" d="M506.5 88.5q2.5-3.5 5 0l-1.5 1h-2z"/><path class="qW" d="M468 94q5-3 13-1 7-2 14 0 7-3 15 0 7-3 12 1zm54 0q2-3 5 1 4 4 8 7 3 0 5 6l-5-6-8-6z"/><path class="qL" d="M262 80h62v120h-62z"/><path class="qM" d="M312 80h12v120h-12z"/><path class="qM" d="M262 80h62v6h-62z"/><path class="qM" d="M262 176h62l5 24h-72z"/><path class="qq" d="M262 176h62"/><path class="qo" d="M257 200l5-24v-96h62v96l5 24"/><path class="qh" d="M272 200v-28a21 21 0 0 1 42 0v28z"/><path class="qq" d="M279.5 165.5l-5.5-2.5m9.5-2.5-3.5-5m9.5 2-1-6m8 6 1-6m5 9 3.5-5m.5 10 5.5-2.5"/><path class="qg" d="M278 200v-28a15 15 0 0 1 30 0v28z"/><path class="qC" d="M278 188h30"/><path class="qx" d="M279 114v-11a3 3 0 0 1 6 0v11zm22 0v-11a3 3 0 0 1 6 0v11z"/><g class="ql"><use href="#qbR" x="276" y="80"/><use href="#qbR" x="293" y="80"/></g><path class="ql" d="M305 80v-6.5h4.5l1.5 2.5 2-1 2 2.5v2.5z"/><path class="ql" d="M270 145h46v6h-46z"/><path class="qS" d="M260 81q8-5 17-3 8-2 16 0 8-3 17 0 8-3 16 3l-1 2h-33q0 3-2 3-1 0-1-3h-12q0 4-2 4-1 0-1-4h-12zm8 65q13-5 25-3 13-2 25 3l-1 1h-47z"/><path class="qs" d="M305 74.5q2.5-4 5 0l-1.5 1h-2z"/><path class="qW" d="M262 80q6-3 15-1 8-2 16 0 8-3 17 0 8-3 14 1zm8 65q11-2 23-1 13-1 23 1z"/><path class="qL" d="M122 90h100l1 60 11 50h-124l11-50z"/><path class="qH" d="M132 90h13l-.5 60-6 50h-16l8.5-50z"/><path class="qM" d="M183 90h39l1 60 11 50h-48.5l-2.5-50z"/><path class="qK" d="M203 90h19l1 60 11 50h-23.5l-7-50z"/><path class="qM" d="M121 150h102l11 50h-124z" opacity=".55"/><path class="qc" d="M121.5 138q50.5-8 101 0m-107 38q56.5-8 113 0"/><path class="qq" d="M121 150q51-8 102 0"/><path class="qx" d="M145 122v-13.5q0-2.5 2.5-2.5 2 0 2 2.5v13.5zm28-2v-13.5q0-2.5 2.5-2.5 2 0 2 2.5v13.5zm29 1v-12.5q0-2.5 1.5-2.5 1.5 0 1.5 2.5v12.5z"/><path class="qC" d="M200 160l3 7-3 6m-70-7 4 5m26 13 3 6"/><path class="qo" d="M122 90h100l1 60 11 50h-124l11-50z"/><path class="qH" d="M119 81h106l-1 9q-52-3-104 0z"/><path class="qM" d="M183.5 81h41.5l-1 9-40.5-2.5z"/><path class="qK" d="M205 81h20l-1 9-19-1.5z"/><path class="qq" d="M119 81h106l-1 9q-52-3-104 0z"/><use href="#qbB52" x="132.6" y="81" class="ql"/><path class="ql" d="M144.5 81v-6.5h5l2 2.5 2-1 2 2.5v2.5z"/><use href="#qbB0" x="172" y="81" class="ql"/><g class="qm"><use href="#qbB26" x="193.9" y="81"/><use href="#qbB52" x="211.4" y="81"/></g><path class="qS" d="M117 82q9-5 18-3 10-2 19 0 9-3 18 0 9-3 18 0 10-2 19-1 9-3 18 4l-1 2h-43q0 4-1 4-2 0-2-4h-61z"/><path class="qs" d="M144.5 75.5q3-4.5 5.5 0l-1.5 1h-2.5z"/><path class="qW" d="M119 81q7-3 16-1 10-2 19 0 9-3 18 0 9-2 18 0 10-2 19-1 9-2 16 2z"/><path class="qm" d="M434 200.5q-4 2-5.5-.5-1.5-2.5.5-5 2-3 5.5-2.5 4 1 3.5 3.5 0 3-4 4.5zm16-3q.5 2.5-2.5 3-2.5 1-4.5-1-1.5-2 0-4 1.5-2 4-1.5 3 1 3 3.5zm5.5 3.5q-3-.5-2.5-3 0-2.5 2.5-2.5 2.5 0 3.5 1.5 1 1.5.5 2.5-1 1.5-4 1.5z"/><path class="qs" d="M427 193q6-3.5 12 0l-1.5 1.5h-9zm14 2q5-2.5 10 0l-1.5 1h-7z"/><path class="qS" d="M5 299q13-3 26-8 13-10 26-14 14-20 27-35 13-32 26-44 13-6 27-1 13-7 26 0 13-6 26-1 14-5 27 0 13-4 26 0 13-3 26 1 14-6 27 0 13-5 26 0 13-6 27 0 13-5 26-1 13-4 26 0 14-5 27 1 13-6 26-1 13-3 26 0 14-3 27 0 13-3 26 0 13-4 27 2 13 14 26 51 13 26 26 46l-6-5-10-13-5-10-7-15-10-24-12-18q0 5-2 5-2 0-2-8h-7-17q0 5-1 5-2 0-2-5h-10-18-19-19q0 3-1 3-2 0-2-3h-7-13q0 3-2 3-2 0-2-3h-7-18-18-16-15q0 5-2 5-2 0-2-5h-9q0 3-1 3-2 0-2-3h-7-15-20-19-11-15q0 7-2 7-2 0-2-7h-9-19-21-19-12-16q0 6-2 6-2 0-2-6h-7-20l-22 1q0 6-2 6-1 0-1-3l-8 14-14 31-21 28-19 11-7 2-9 1-11 1z"/><path class="qW" d="M31 292l26-14 27-35 26-44 27-1h26l26-1h27 26l26 1h27 26 27l26-1h26l27 1 26-1h26 27 26l27 2 26 51v2l-26-51-27-2h-26-27-26l-26 1-27-1h-26l-26 1h-27-26-27l-26-1-26 1-27-1-26 1h-26l-27 1-26 45-27 34-26 13z"/><path class="qa" d="M584 304v-6q0-4 6-4h30q10 0 10 5v5z"/><path class="qA" d="M590 296h29q6 0 7.5 2.5h-38q0-2.5 1.5-2.5z"/><path class="qj" d="M596 300.5h9m6 .5h7"/><path class="qi" d="M597 295l4-6 6 1 3 5zm16 0 3-4.5 6 1 2 3.5z"/><path class="qs" d="M596.5 290q4.5-4 8.5 1l-1.5 1-5.5-.5z"/></svg>
